<?xml version="1.0" encoding="utf-8"?>
<!-- Generator: Adobe Illustrator 24.3.0, SVG Export Plug-In . SVG Version: 6.00 Build 0)  -->
<svg version="1.1" id="图层_1" xmlns="http://www.w3.org/2000/svg" xmlns:xlink="http://www.w3.org/1999/xlink" x="0px" y="0px"
	 viewBox="0 0 12 24" style="enable-background:new 0 0 12 24;" xml:space="preserve">
<style type="text/css">
	.st0{fill-opacity:0.2;}
</style>
<path id="path-1_1_" class="st0" d="M4.2,5.8L4.2,5.8l5,5c0.7,0.7,0.7,1.7,0,2.4l0,0l-4.9,4.9c-0.1,0.1-0.3,0.2-0.5,0.2l0,0h0
	c-0.2,0-0.4-0.1-0.5-0.2c-0.3-0.3-0.3-0.7,0-1l0,0l4.6-4.6c0.3-0.3,0.3-0.7,0-1l0,0L3.2,6.9c-0.3-0.3-0.3-0.8,0-1.1
	c0.1-0.1,0.3-0.2,0.5-0.2l0,0C3.9,5.6,4.1,5.7,4.2,5.8z"/>
</svg>
