<?xml version="1.0" encoding="utf-8"?>
<!-- Generator: Adobe Illustrator 24.3.0, SVG Export Plug-In . SVG Version: 6.00 Build 0)  -->
<svg version="1.1" id="图层_1" xmlns="http://www.w3.org/2000/svg" xmlns:xlink="http://www.w3.org/1999/xlink" x="0px" y="0px"
	 viewBox="0 0 24 24" style="enable-background:new 0 0 24 24;" xml:space="preserve">
<path id="path-1_1_" d="M15.5,0.5c1.6,0,3,1.3,3,2.9l0,0.1v4.2c0.4,0,0.8,0.3,0.8,0.8v1c0,0.4-0.3,0.8-0.8,0.8v10.2
	c0,1.6-1.3,3-2.9,3l-0.1,0h-7c-1.6,0-3-1.3-3-2.9l0-17.1c0-1.6,1.3-3,2.9-3L15.5,0.5z M15.5,2h-7C7.7,2,7,2.6,7,3.4l0,0.1v17
	C7,21.3,7.6,22,8.4,22l0.1,0h7c0.8,0,1.5-0.6,1.5-1.4l0-0.1v-17C17,2.7,16.4,2,15.5,2L15.5,2z"/>
</svg>
